<svg width="235" height="64" viewBox="0 0 235 64" fill="none" xmlns="http://www.w3.org/2000/svg">
<path d="M51.056 6.968C49.52 7.05333 48.3893 7.224 47.664 7.48C46.9813 7.736 46.512 8.22667 46.256 8.952C46 9.67733 45.872 10.8507 45.872 12.472V44.216C45.872 45.8373 46 47.0107 46.256 47.736C46.512 48.4613 46.9813 48.952 47.664 49.208C48.3893 49.464 49.52 49.6347 51.056 49.72V51C49.0933 50.872 46.384 50.808 42.928 50.808C39.2587 50.808 36.528 50.872 34.736 51V49.72C36.272 49.6347 37.3813 49.464 38.064 49.208C38.7893 48.952 39.28 48.4613 39.536 47.736C39.792 47.0107 39.92 45.8373 39.92 44.216V9.912L24.496 51.32H23.472L7.344 9.784V43.576C7.344 45.24 7.472 46.4773 7.728 47.288C8.02667 48.0987 8.58133 48.696 9.392 49.08C10.2027 49.4213 11.4613 49.6347 13.168 49.72V51C11.632 50.872 9.456 50.808 6.64 50.808C4.08 50.808 2.096 50.872 0.688 51V49.72C2.18133 49.6347 3.29067 49.4213 4.016 49.08C4.74133 48.696 5.232 48.0987 5.488 47.288C5.744 46.4347 5.872 45.1973 5.872 43.576V12.472C5.872 10.8507 5.744 9.67733 5.488 8.952C5.232 8.22667 4.74133 7.736 4.016 7.48C3.33333 7.224 2.224 7.05333 0.688 6.968V5.688C2.096 5.816 4.08 5.88 6.64 5.88C8.85867 5.88 10.672 5.816 12.08 5.688L26.16 42.744L39.92 5.88H42.928C46.384 5.88 49.0933 5.816 51.056 5.688V6.968ZM90.038 45.624C91.062 48.2693 92.534 49.6347 94.454 49.72V51C92.7473 50.872 90.4647 50.808 87.606 50.808C83.9367 50.808 81.206 50.872 79.414 51V49.72C81.0353 49.6347 82.1873 49.4427 82.87 49.144C83.5953 48.8027 83.958 48.2053 83.958 47.352C83.958 46.6267 83.702 45.624 83.19 44.344L79.286 33.848H63.798L61.174 40.632C60.3207 42.936 59.894 44.6853 59.894 45.88C59.894 47.2027 60.342 48.1627 61.238 48.76C62.1767 49.3573 63.5847 49.6773 65.462 49.72V51C63.03 50.872 60.5767 50.808 58.102 50.808C56.182 50.808 54.582 50.872 53.302 51V49.72C55.4353 49.208 57.1207 47.352 58.358 44.152L73.398 5.368H74.422L90.038 45.624ZM78.774 32.568L71.606 13.432L64.31 32.568H78.774ZM136.303 47.8C135.364 49.208 134.404 50.2533 133.423 50.936C132.441 51.576 131.119 51.896 129.455 51.896C127.748 51.896 126.319 51.4053 125.167 50.424C124.057 49.4427 123.204 47.6293 122.607 44.984L120.815 37.048C120.303 34.872 119.791 33.208 119.279 32.056C118.809 30.8613 117.999 29.9227 116.847 29.24C115.737 28.5147 114.159 28.152 112.111 28.152H107.887V44.216C107.887 45.8373 108.015 47.0107 108.271 47.736C108.527 48.4613 108.996 48.952 109.679 49.208C110.404 49.464 111.535 49.6347 113.071 49.72V51C111.108 50.872 108.399 50.808 104.943 50.808C101.273 50.808 98.5425 50.872 96.7505 51V49.72C98.2865 49.6347 99.3958 49.464 100.079 49.208C100.804 48.952 101.295 48.4613 101.551 47.736C101.807 47.0107 101.935 45.8373 101.935 44.216V12.472C101.935 10.8507 101.807 9.67733 101.551 8.952C101.295 8.22667 100.804 7.736 100.079 7.48C99.3958 7.224 98.2865 7.05333 96.7505 6.968V5.688C98.5425 5.816 101.273 5.88 104.943 5.88C108.356 5.88 111.065 5.816 113.071 5.688V6.968C111.535 7.05333 110.404 7.224 109.679 7.48C108.996 7.736 108.527 8.22667 108.271 8.952C108.015 9.67733 107.887 10.8507 107.887 12.472V26.936C111.044 26.8933 113.561 25.656 115.439 23.224L121.583 15.416C123.759 12.728 124.847 10.68 124.847 9.272C124.847 7.77866 123.524 7.01066 120.879 6.968V5.688C123.311 5.816 125.764 5.88 128.239 5.88C130.585 5.88 132.399 5.816 133.679 5.688V6.968C130.777 7.39466 128.26 8.952 126.127 11.64L114.095 27C117.508 27.128 120.281 27.8747 122.415 29.24C124.591 30.5627 126.063 32.888 126.831 36.216L128.687 44.28C129.156 46.328 129.583 47.7147 129.967 48.44C130.393 49.1653 131.012 49.528 131.823 49.528C132.548 49.528 133.145 49.336 133.615 48.952C134.127 48.568 134.703 47.9493 135.343 47.096L136.303 47.8ZM155.01 18.424C159.703 18.424 163.18 19.9387 165.442 22.968C167.703 25.9973 168.833 29.7947 168.833 34.36C168.833 37.8587 168.194 40.9307 166.914 43.576C165.634 46.2213 163.842 48.2693 161.538 49.72C159.234 51.1707 156.588 51.896 153.602 51.896C144.514 51.896 139.97 44.9413 139.97 31.032C139.97 27.6187 140.311 23.7787 140.994 19.512C141.676 15.2453 143.084 11.9173 145.218 9.528C147.01 7.52266 149.57 6.24266 152.898 5.688C153.879 5.51733 155.863 5.32533 158.85 5.112C159.618 5.112 160.151 5.09067 160.45 5.048C162.754 4.87733 164.46 4.472 165.57 3.832C166.679 3.192 167.575 2.14666 168.257 0.695999L169.218 0.951996C168.706 2.53066 168.172 3.87466 167.618 4.984C167.063 6.05067 166.402 6.904 165.634 7.544C164.14 8.78133 161.922 9.48533 158.978 9.656C156.332 9.784 154.156 9.99733 152.45 10.296C150.06 10.7227 148.162 11.5547 146.754 12.792C145.346 14.0293 144.236 15.928 143.426 18.488C142.615 21.0053 141.996 24.4827 141.57 28.92L141.634 28.984C143.596 21.944 148.055 18.424 155.01 18.424ZM154.69 50.616C157.634 50.616 159.682 48.952 160.834 45.624C162.028 42.296 162.626 38.4773 162.626 34.168C162.626 29.176 161.922 25.528 160.514 23.224C159.106 20.92 157.186 19.768 154.753 19.768C152.279 19.768 150.21 20.9627 148.546 23.352C146.882 25.6987 146.05 29.5387 146.05 34.872C146.05 38.4987 146.455 41.4853 147.266 43.832C148.076 46.1787 149.122 47.9067 150.402 49.016C151.724 50.0827 153.154 50.616 154.69 50.616ZM196.69 18.232C198.567 18.232 200.188 18.168 201.554 18.04V19.32C200.7 19.4053 199.932 19.7893 199.25 20.472C198.61 21.1547 197.991 22.264 197.394 23.8L186.898 51.32L184.722 56.888C183.911 58.9787 182.994 60.472 181.97 61.368C181.33 61.9653 180.562 62.392 179.666 62.648C178.77 62.904 177.874 63.032 176.978 63.032C175.698 63.032 174.652 62.6907 173.842 62.008C173.031 61.3253 172.626 60.3867 172.626 59.192C172.626 58.168 172.924 57.336 173.522 56.696C174.119 56.0987 174.951 55.8 176.018 55.8C176.956 55.8 177.724 56.056 178.322 56.568C178.962 57.1227 179.282 57.8693 179.282 58.808C179.282 60.088 178.706 61.048 177.554 61.688C177.639 61.7307 177.767 61.752 177.938 61.752C180.284 61.752 182.098 60.088 183.378 56.76L185.618 50.936L174.034 22.968C173.308 21.5173 172.583 20.5573 171.858 20.088C171.132 19.6187 170.407 19.384 169.681 19.384V18.04C171.516 18.296 173.607 18.424 175.954 18.424C178.087 18.424 180.86 18.296 184.274 18.04V19.384C182.738 19.384 181.607 19.512 180.882 19.768C180.199 20.024 179.858 20.6427 179.858 21.624C179.858 22.52 180.114 23.5653 180.626 24.76L188.306 43.832L195.41 25.336C195.879 24.056 196.114 23.0747 196.114 22.392C196.114 21.4107 195.73 20.6853 194.962 20.216C194.194 19.7467 192.978 19.448 191.314 19.32V18.04C193.575 18.168 195.367 18.232 196.69 18.232ZM230.604 46.456C231.372 47.5227 232.012 48.2907 232.524 48.76C233.078 49.1867 233.761 49.4853 234.572 49.656V51C232.353 50.8293 230.838 50.744 230.028 50.744C228.577 50.744 226.06 50.8293 222.476 51V49.656C223.158 49.656 223.734 49.528 224.204 49.272C224.716 49.016 224.972 48.6747 224.972 48.248C224.972 47.9493 224.886 47.6933 224.716 47.48L217.42 36.856L212.748 42.936C211.553 44.5147 210.956 45.7947 210.956 46.776C210.956 47.672 211.361 48.376 212.172 48.888C213.025 49.3573 214.198 49.6347 215.692 49.72V51C213.473 50.872 211.041 50.808 208.396 50.808C206.518 50.808 204.897 50.872 203.532 51V49.72C204.385 49.6347 205.238 49.2507 206.092 48.568C206.988 47.8853 208.012 46.776 209.164 45.24L216.524 35.576L207.628 22.584C206.774 21.3467 206.092 20.536 205.58 20.152C205.068 19.7253 204.428 19.4693 203.66 19.384V18.04C205.878 18.2107 207.393 18.296 208.204 18.296C209.654 18.296 212.172 18.2107 215.756 18.04V19.384C215.073 19.384 214.476 19.512 213.964 19.768C213.494 20.024 213.26 20.3653 213.26 20.792C213.26 21.0907 213.345 21.3467 213.516 21.56L220.364 31.544L224.78 25.336C226.06 23.5013 226.7 22.1573 226.7 21.304C226.7 20.7067 226.401 20.2587 225.804 19.96C225.249 19.6187 224.332 19.4053 223.052 19.32V18.04C225.27 18.168 227.062 18.232 228.428 18.232C230.305 18.232 231.926 18.168 233.292 18.04V19.32C231.542 19.5333 229.665 21.0267 227.66 23.8L221.196 32.76L230.604 46.456Z" fill="white"/>
</svg>
